# xmcd CD database file
#
# Track frame offsets:
#	150
#	14354
#	33225
#	47567
#	61196
#	77055
#	95795
#	115110
#	131027
#	147900
#	165800
#	181044
#	192051
#	209012
#
# Disc length: 2997 seconds
#
# Revision: 0
# Processed by: cddbd v1.5.2PL0 Copyright (c) Steve Scherf et al.
# Submitted via: CDex 1.51
#
DISCID=b40bb30e
DTITLE=Black Keys Tribute - Black on Blues
DYEAR=2013
DGENRE=Blues
TTITLE0=Lonely Boy - Iggy Pop and Ginger Baker
TTITLE1=Tighten Up - Walter Trout
TTITLE2=Next Girl - Oli Brown Band
TTITLE3=Money Maker - Dave Davies
TTITLE4=Girl is on My Mind - Mike Zito and Cyril Neville
TTITLE5=Howlin for You - Albert Lee
TTITLE6=Little Black Submarines - Devon Allman and Mani Neumeier 
TTITLE7=Everlasting light - Pat Travers
TTITLE8=Gold on the ceiling - Tab Benoit
TTITLE9=I got mine - Leslie West
TTITLE10=Chop and Change - Larry McCray
TTITLE11=I'll be your man - Doug Kershaw
TTITLE12=Dead and gone - Jackie Lomax
TTITLE13=When the lights go out - Papa Mali
EXTD=YEAR: 2013
EXTT0=
EXTT1=
EXTT2=
EXTT3=
EXTT4=
EXTT5=
EXTT6=
EXTT7=
EXTT8=
EXTT9=
EXTT10=
EXTT11=
EXTT12=
EXTT13=
PLAYORDER=
